<?xml version="1.0" standalone="no"?>
<!DOCTYPE svg PUBLIC "-//W3C//DTD SVG 20010904//EN"
 "http://www.w3.org/TR/2001/REC-SVG-20010904/DTD/svg10.dtd">
<svg version="1.0" xmlns="http://www.w3.org/2000/svg"
 width="128.000000pt" height="128.000000pt" viewBox="0 0 128.000000 128.000000"
 preserveAspectRatio="xMidYMid meet">

<g transform="translate(0.000000,128.000000) scale(0.100000,-0.100000)"
fill="#000000" stroke="none">
<path d="M688 758 c-3 -325 -4 -355 -22 -384 -26 -43 -66 -64 -121 -64 -42 0
-52 5 -86 39 -34 34 -39 44 -39 86 0 82 53 138 131 137 l39 -1 0 91 0 91 -63
-5 c-112 -9 -212 -80 -259 -183 -31 -68 -32 -180 -1 -246 30 -66 86 -124 151
-156 47 -23 70 -28 132 -28 124 1 219 59 278 170 26 49 27 55 30 258 2 114 5
207 7 207 2 0 19 -9 37 -19 33 -20 137 -51 170 -51 16 0 18 10 18 85 0 84 0
85 -27 91 -122 27 -182 84 -199 193 l-7 41 -83 0 -83 0 -3 -352z"/>
</g>
</svg>
