<?xml version="1.0" standalone="no"?>
<!DOCTYPE svg PUBLIC "-//W3C//DTD SVG 20010904//EN"
 "http://www.w3.org/TR/2001/REC-SVG-20010904/DTD/svg10.dtd">
<svg version="1.0" xmlns="http://www.w3.org/2000/svg"
 width="128.000000pt" height="128.000000pt" viewBox="0 0 128.000000 128.000000"
 preserveAspectRatio="xMidYMid meet">

<g transform="translate(0.000000,128.000000) scale(0.100000,-0.100000)"
fill="#000000" stroke="none">
<path d="M539 1270 c-128 -20 -257 -88 -353 -185 -70 -72 -117 -148 -152 -250
-24 -70 -28 -95 -27 -195 0 -99 4 -126 27 -195 15 -44 43 -106 63 -138 92
-152 274 -273 448 -296 l55 -8 0 244 0 243 -80 0 -80 0 0 100 0 100 79 0 78 0
6 108 c3 66 12 124 22 148 46 111 163 160 329 140 l57 -8 -3 -86 -3 -87 -83
-5 c-106 -6 -112 -13 -112 -127 l0 -83 95 0 96 0 -7 -52 c-4 -29 -10 -73 -13
-98 l-6 -45 -83 -3 -82 -3 0 -229 c0 -141 4 -230 10 -230 21 0 114 42 165 74
119 77 212 198 261 341 23 68 27 97 27 190 1 128 -14 191 -75 307 -47 90 -139
189 -225 241 -121 74 -296 109 -434 87z"/>
</g>
</svg>
