<?xml version="1.0" standalone="no"?>
<!DOCTYPE svg PUBLIC "-//W3C//DTD SVG 20010904//EN"
 "http://www.w3.org/TR/2001/REC-SVG-20010904/DTD/svg10.dtd">
<svg version="1.0" xmlns="http://www.w3.org/2000/svg"
 width="128.000000pt" height="128.000000pt" viewBox="0 0 128.000000 128.000000"
 preserveAspectRatio="xMidYMid meet">

<g transform="translate(0.000000,128.000000) scale(0.100000,-0.100000)"
fill="#000000" stroke="none">
<path d="M285 1152 c-95 -33 -158 -97 -190 -192 -14 -41 -16 -95 -13 -367 l3
-318 27 -51 c28 -52 86 -112 135 -137 61 -32 144 -39 428 -35 l280 3 67 33
c75 37 110 72 147 152 l26 55 0 315 0 315 -26 55 c-36 77 -80 124 -147 157
l-57 28 -315 2 c-279 3 -321 1 -365 -15z m710 -117 c35 -21 56 -45 74 -80 l26
-49 0 -296 c0 -285 -1 -296 -22 -336 -27 -51 -72 -90 -121 -104 -24 -7 -141
-10 -338 -8 l-301 3 -41 28 c-23 15 -52 46 -64 70 -22 40 -23 53 -26 330 -3
246 -1 296 13 338 20 59 79 114 139 128 23 5 170 9 327 8 l286 -2 48 -30z"/>
<path d="M886 948 c-21 -29 -20 -51 2 -78 36 -44 112 -17 112 40 0 56 -82 83
-114 38z"/>
<path d="M530 883 c-62 -22 -142 -105 -163 -167 -35 -104 -15 -212 56 -292 57
-65 123 -94 212 -94 300 0 397 383 136 538 -56 33 -172 40 -241 15z m210 -117
c124 -82 96 -280 -47 -327 -134 -44 -274 87 -235 220 37 123 178 176 282 107z"/>
</g>
</svg>
